<?xml version="1.0" encoding="utf-8"?>
<!-- Svg Vector Icons : http://www.onlinewebfonts.com/icon -->
<!DOCTYPE svg PUBLIC "-//W3C//DTD SVG 1.1//EN" "http://www.w3.org/Graphics/SVG/1.1/DTD/svg11.dtd">
<svg version="1.1" xmlns="http://www.w3.org/2000/svg" xmlns:xlink="http://www.w3.org/1999/xlink" x="0px" y="0px" viewBox="0 0 1000 1000" enable-background="new 0 0 1000 1000" xml:space="preserve">
<metadata> Svg Vector Icons : http://www.onlinewebfonts.com/icon </metadata>
<g><g transform="translate(0.000000,511.000000) scale(0.100000,-0.100000)"><path d="M2559.3,4918c-133.9-133.9-189.7-351.5-189.7-716.9c2.8-220.4,16.7-334.7,58.6-460.2c33.5-92,415.6-931.7,853.6-1866.1l795-1701.5l80.9,181.3c44.6,97.6,223.1,479.8,396.1,848c172.9,368.2,312.4,689,312.4,711.3c-5.6,83.7-1101.8,2387.7-1196.7,2518.8c-212,287.3-661.1,577.4-895.4,577.4C2670.9,5010,2634.6,4993.3,2559.3,4918z"/><path d="M6935.8,4926.3c-223.2-111.6-460.2-304-594.2-479.8c-72.5-97.6-783.8-1592.7-2080.9-4373.7c-1082.3-2323.5-1972.1-4237.1-1974.9-4251c-8.4-33.5,1297.1-638.8,1319.4-610.9c8.4,11.1,131.1,267.8,270.6,566.2C4015.4-3924.4,4902.4-2022,5845.2,3.1C6788,2028.2,7577.4,3740.8,7594.1,3810.6c53,186.9,44.6,652.7-11.2,842.4c-25.1,89.3-83.7,206.4-131.1,259.4c-75.3,86.5-103.2,97.6-217.6,97.6C7142.2,5010,7050.2,4984.9,6935.8,4926.3z M5212,335c153.4-72.5,278.9-133.9,284.5-139.5c13.9-11.2-78.1-178.5-97.6-178.5c-16.7,0-569,251-591.3,267.8c-22.3,19.5,61.4,178.5,94.8,178.5C4921.9,463.3,5061.4,404.7,5212,335z M4760.1-596.6c161.8-75.3,295.7-145.1,295.7-150.6c0-13.9-58.6-156.2-72.5-178.5c-5.6-8.4-596.9,265-619.2,284.5c-11.2,11.2,72.5,184.1,89.3,184.1C4458.9-457.2,4595.5-518.5,4760.1-596.6z"/><path d="M710,3989.1c-125.5-86.5-145-175.7-145-624.8c0-449.1,27.9-583,136.7-641.6l58.6-30.7V-432.1v-3121.3l-75.3,16.7c-44.6,8.4-114.3,27.9-159,41.9c-117.2,36.3-117.2,36.3-170.2-92.1c-41.8-108.8-41.8-119.9,0-150.6c25.1-19.5,125.5-50.2,225.9-69.7l178.5-36.3v-133.9v-133.9h139.5h139.5v136.7v136.7l181.3,33.5c97.6,19.5,198,47.4,223.2,67c41.8,30.7,41.8,41.8,0,150.6c-53,128.3-53,128.3-170.2,92.1c-44.6-14-114.4-33.5-156.2-41.9l-78.1-16.7v3121.3c0,3023.7,2.8,3126.9,53,3152c111.6,61.4,142.3,195.3,142.3,627.6c0,449.1-25.1,557.9-147.8,638.8C994.5,4044.9,793.6,4047.7,710,3989.1z"/><path d="M8907.9,3989.1c-117.1-83.7-142.2-200.8-142.2-638.8c0-435.1,27.9-569,136.7-627.6l58.6-30.7V-432.1v-3121.3l-75.3,16.7c-44.6,8.4-114.4,27.9-159,41.9c-117.1,36.3-117.1,36.3-170.1-92.1c-41.8-108.8-41.8-119.9,0-150.6c25.1-19.5,125.5-50.2,225.9-69.7l178.5-36.3v-133.9v-133.9h139.5h139.5v133.9v133.9l178.5,36.3c100.4,19.5,200.8,50.2,225.9,69.7c41.8,30.7,41.8,41.8,0,150.6c-53,128.3-53,128.3-170.1,92.1c-44.6-14-114.4-33.5-156.2-41.9l-78.1-16.7v3121.3V2692l58.6,30.7c108.8,58.6,136.7,192.5,136.7,627.6c0,560.7-58.6,683.4-334.7,683.4C9027.9,4033.7,8944.2,4014.2,8907.9,3989.1z"/><path d="M5914.9-359.6c-44.6-75.3-783.8-1676.4-783.8-1701.5c0-30.7,1232.9-2691.8,1263.6-2728c22.3-25.1,1327.7,577.4,1319.4,610.9c-2.8,13.9-376.6,822.9-831.2,1796.3C6428.2-1408.3,6026.5-549.2,5993-471.1C5959.6-395.8,5923.3-345.6,5914.9-359.6z"/></g></g>
</svg>